<svg width="70" height="70" xmlns="http://www.w3.org/2000/svg" xmlns:xlink="http://www.w3.org/1999/xlink" viewBox="0 0 70 70"><defs><linearGradient x1="0%" y1="50%" x2="100%" y2="50%" id="b"><stop stop-color="#9BD48E" offset="0%"/><stop stop-color="#78CB9E" offset="100%"/></linearGradient><path d="M0 11.691c6.237 2.014 11.023 7.257 12.373 13.765.103.002.205.015.309.015 7.035 0 12.736-5.702 12.736-12.735C25.418 5.702 19.717 0 12.682 0 6.002 0 .533 5.147 0 11.691" id="a"/></defs><g fill="none" fill-rule="evenodd"><g transform="translate(31.392 13.686)"><mask id="c" fill="#fff"><use xlink:href="#a"/></mask><path d="M0 11.691c6.237 2.014 11.023 7.257 12.373 13.765.103.002.205.015.309.015 7.035 0 12.736-5.702 12.736-12.735C25.418 5.702 19.717 0 12.682 0 6.002 0 .533 5.147 0 11.691" fill="url(#b)" mask="url(#c)"/></g><g stroke="#333" stroke-width="1.3"><path d="M40.398 27.035h5.903m-4.661 6.644c1.559-.484 3.959-.686 6.786.925m-.186-11.947v-.908c0-2.33-2.272-4.129-4.72-3.305-1.419.477-2.33 1.867-2.296 3.363l.001.045.656 2.05c.91 2.84.345 5.884-.955 8.591"/><path d="M44.151 42.903c0 10.174-8.248 18.422-18.423 18.422-10.174 0-18.422-8.248-18.422-18.422 0-10.174 8.248-18.422 18.422-18.422 10.175 0 18.423 8.248 18.423 18.422z"/><path d="M44.074 8c-9.519 0-17.349 7.22-18.318 16.482 10.162.015 18.395 8.256 18.395 18.421 0 .656-.037 1.302-.104 1.94l.027.001c10.175 0 18.422-8.247 18.422-18.422C62.496 16.248 54.25 8 44.074 8zM30.175 39.723v-1.151a4.447 4.447 0 00-4.577-4.445c-2.395.069-4.354 2.124-4.315 4.519v.056c.036 1.177.726 2.238 1.75 2.819l5.392 3.067c1.023.58 1.715 1.64 1.749 2.819v.056c.04 2.395-1.92 4.45-4.313 4.519a4.448 4.448 0 01-4.58-4.445v-1.151m4.448-15.234v2.975m0 17.854v2.673m38.074-5.292l-1.818-3.1-1.523-2.595-5.694 3.34"/><path d="M41.005 60.176c6.066-.516 11.894-3.525 15.806-8.782a21.722 21.722 0 003.65-7.727M6 19.964l1.819 3.1 1.522 2.594 5.694-3.34"/><path d="M28.8 9.15c-6.067.516-11.895 3.525-15.807 8.782a21.72 21.72 0 00-3.652 7.726"/></g></g></svg>