<svg width="70" height="70" viewBox="0 0 70 70" xmlns="http://www.w3.org/2000/svg" xmlns:xlink="http://www.w3.org/1999/xlink"><defs><linearGradient x1="50%" y1="0%" x2="50%" y2="100%" id="linearGradient-3"><stop stop-color="#FFF" offset="0%"/><stop stop-color="#F0F0F0" offset="100%"/></linearGradient><filter x="-2.1%" y="-3%" width="104.3%" height="112%" filterUnits="objectBoundingBox" id="filter-5"><feOffset dy="1" in="SourceAlpha" result="shadowOffsetOuter1"/><feColorMatrix values="0 0 0 0 0 0 0 0 0 0 0 0 0 0 0 0 0 0 0.06 0" in="shadowOffsetOuter1"/></filter><rect id="path-1" x="0" y="0" width="70" height="50" rx="2"/><path d="M25 16.667A1.667 1.667 0 1125 20a1.667 1.667 0 010-3.333zm-6.667 0a1.667 1.667 0 110 3.333 1.667 1.667 0 010-3.333zm-6.666 0a1.667 1.667 0 110 3.333 1.667 1.667 0 010-3.333zm-6.667 0A1.667 1.667 0 115 20a1.667 1.667 0 010-3.333zm3.333-3.334a1.667 1.667 0 110 3.334 1.667 1.667 0 010-3.334zm6.667 0a1.667 1.667 0 110 3.334 1.667 1.667 0 010-3.334zm6.667 0a1.667 1.667 0 110 3.334 1.667 1.667 0 010-3.334zM25 10a1.667 1.667 0 110 3.333A1.667 1.667 0 0125 10zm-6.667 0a1.667 1.667 0 110 3.333 1.667 1.667 0 010-3.333zm-6.666 0a1.667 1.667 0 110 3.333 1.667 1.667 0 010-3.333zM5 10a1.667 1.667 0 110 3.333A1.667 1.667 0 015 10zm3.333-3.333a1.667 1.667 0 110 3.333 1.667 1.667 0 010-3.333zm6.667 0A1.667 1.667 0 1115 10a1.667 1.667 0 010-3.333zm6.667 0a1.667 1.667 0 110 3.333 1.667 1.667 0 010-3.333zM5 3.333a1.667 1.667 0 110 3.334 1.667 1.667 0 010-3.334zm6.667 0a1.667 1.667 0 110 3.334 1.667 1.667 0 010-3.334zm6.666 0a1.667 1.667 0 110 3.334 1.667 1.667 0 010-3.334zm6.667 0a1.667 1.667 0 110 3.334 1.667 1.667 0 010-3.334z" id="path-4"/></defs><g id="Rule" stroke="none" stroke-width="1" fill="none" fill-rule="evenodd"><g id="CUB-WEB_Guildeline" transform="translate(-753 -3001)"><g id="Icon/70/country/usa" transform="translate(753 3001)"><g id="Group" transform="translate(0 10)"><mask id="mask-2" fill="#fff"><use xlink:href="#path-1"/></mask><use id="Mask" fill="#FFF" xlink:href="#path-1"/><path d="M70 46.667V50H0v-3.333h70zM70 40v3.333H0V40h70zm0-6.667v3.334H0v-3.334h70zm0-6.666V30H0v-3.333h70zM70 20v3.333H0V20h70zm0-6.667v3.334H0v-3.334h70zm0-6.666V10H0V6.667h70zM70 0v3.333H0V0h70z" id="Rectangle-511" fill="#D02F44" mask="url(#mask-2)"/><path id="Rectangle-511" fill="#46467F" mask="url(#mask-2)" d="M0 0h30v23.333H0z"/><g id="Oval-43" mask="url(#mask-2)"><use fill="#000" filter="url(#filter-5)" xlink:href="#path-4"/><use fill="url(#linearGradient-3)" xlink:href="#path-4"/></g></g></g></g></g></svg>